<svg xmlns="http://www.w3.org/2000/svg" viewBox="0 0 760 220" width="760" height="220" role="img" aria-label="NUMA Budget">
  <defs>
    <linearGradient id="full-left" x1="55" x2="87" y1="22" y2="198" gradientUnits="userSpaceOnUse">
      <stop offset="0" stop-color="#063f4d"/>
      <stop offset="0.55" stop-color="#07859a"/>
      <stop offset="1" stop-color="#10a6b8"/>
    </linearGradient>
    <linearGradient id="full-right" x1="134" x2="166" y1="22" y2="198" gradientUnits="userSpaceOnUse">
      <stop offset="0" stop-color="#bdeff2"/>
      <stop offset="0.58" stop-color="#73d4df"/>
      <stop offset="1" stop-color="#13a8b9"/>
    </linearGradient>
    <linearGradient id="full-diagonal" x1="67" x2="153" y1="52" y2="167" gradientUnits="userSpaceOnUse">
      <stop offset="0" stop-color="#b9eef2" stop-opacity="0.66"/>
      <stop offset="0.5" stop-color="#77d4df" stop-opacity="0.74"/>
      <stop offset="1" stop-color="#12a7b8" stop-opacity="0.86"/>
    </linearGradient>
    <linearGradient id="full-top-shadow" x1="68" x2="126" y1="37" y2="100" gradientUnits="userSpaceOnUse">
      <stop offset="0" stop-color="#042e39" stop-opacity="0.38"/>
      <stop offset="1" stop-color="#042e39" stop-opacity="0"/>
    </linearGradient>
  </defs>
  <g fill="none" fill-rule="evenodd">
    <g>
      <rect x="38" y="24" width="58" height="172" rx="29" fill="url(#full-left)"/>
      <rect x="124" y="24" width="58" height="172" rx="29" fill="url(#full-right)"/>
      <path d="M67 52 153 167" stroke="url(#full-diagonal)" stroke-width="58" stroke-linecap="round"/>
      <path d="M38 65c15 22 34 44 58 66V53c0-16-13-29-29-29S38 37 38 53v12Z" fill="url(#full-top-shadow)"/>
    </g>
    <g aria-hidden="true">
    <g fill="#063f4d">
      <path d="M66 708L303 708L505 349L509 349L499 708L725 708L725 0L482 0L286 338L282 338L292 0L66 0Z" transform="translate(250 104) scale(0.08500 -0.08500)"/>
      <path d="M384 -20Q301 -20 239.5 3Q178 26 137 66Q96 106 76 160.5Q56 215 56 278L56 708L294 708L294 304Q294 253 318.5 224.5Q343 196 388 196Q433 196 457.5 224.5Q482 253 482 304L482 708L719 708L719 278Q719 215 697.5 160.5Q676 106 634 66Q592 26 529.5 3Q467 -20 384 -20Z" transform="translate(354.318 104) scale(0.08500 -0.08500)"/>
      <path d="M277 400L288 0L66 0L66 708L377 708L505 327L510 327L621 708L942 708L942 0L711 0L718 398L712 399L580 0L412 0L282 400Z" transform="translate(457.277 104) scale(0.08500 -0.08500)"/>
      <path d="M263 708L516 708L792 0L533 0L496 104L271 104L236 0L-16 0ZM386 461L328 286L443 286Z" transform="translate(580.04 104) scale(0.08500 -0.08500)"/>
    </g>
    <g fill="#32adbd">
      <path d="M86 708L330 708Q370 708 410 699Q450 690 481.5 669Q513 648 532.5 614Q552 580 552 529Q552 470 518 430Q484 390 428 375L428 373Q462 369 491 355.5Q520 342 541 320Q562 298 573.5 268Q585 238 585 201Q585 150 564 112Q543 74 507 49.5Q471 25 422.5 12.5Q374 0 319 0L86 0ZM185 409L314 409Q342 409 367.5 415.5Q393 422 412 435.5Q431 449 442 469.5Q453 490 453 519Q453 576 411 600.5Q369 625 298 625L185 625ZM185 84L309 84Q340 84 371.5 89.5Q403 95 428.5 109Q454 123 469.5 146.5Q485 170 485 206Q485 269 442 297Q399 325 318 325L185 325Z" transform="translate(253 163) scale(0.04500 -0.04500)"/>
      <path d="M356 -18Q286 -18 234 5.5Q182 29 148 68Q114 107 97.5 157.5Q81 208 81 262L81 708L180 708L180 268Q180 232 189 196.5Q198 161 218.5 133Q239 105 272.5 88Q306 71 356 71Q405 71 439 88Q473 105 493.5 133Q514 161 523 196.5Q532 232 532 268L532 708L631 708L631 262Q631 208 614.5 157.5Q598 107 564 68Q530 29 478 5.5Q426 -18 356 -18Z" transform="translate(323.323 163) scale(0.04500 -0.04500)"/>
      <path d="M86 708L329 708Q397 708 465 688Q533 668 588 625Q643 582 677 515Q711 448 711 354Q711 263 677 196.5Q643 130 588 86.5Q533 43 465 21.5Q397 0 329 0L86 0ZM185 87L309 87Q373 87 427.5 105Q482 123 521.5 157Q561 191 583 241Q605 291 605 354Q605 420 583 470Q561 520 521.5 553.5Q482 587 427.5 604.5Q373 622 309 622L185 622Z" transform="translate(396.796 163) scale(0.04500 -0.04500)"/>
      <path d="M620 562Q588 597 538.5 618Q489 639 428 639Q366 639 316 616.5Q266 594 231 555Q196 516 177 464.5Q158 413 158 355Q158 296 177 244Q196 192 231 153.5Q266 115 317 93Q368 71 431 71Q481 71 523 80Q565 89 596 106L596 303L439 303L439 387L694 387L694 44Q638 14 572 -2Q506 -18 428 -18Q345 -18 275.5 9.5Q206 37 156 86.5Q106 136 78 204.5Q50 273 50 355Q50 438 78.5 506.5Q107 575 157.5 623.5Q208 672 277 699Q346 726 427 726Q512 726 578.5 701Q645 676 689 634Z" transform="translate(472.474 163) scale(0.04500 -0.04500)"/>
      <path d="M185 88L555 88L555 0L86 0L86 708L540 708L540 621L185 621L185 409L519 409L519 324L185 324Z" transform="translate(548.917 163) scale(0.04500 -0.04500)"/>
      <path d="M334 0L235 0L235 621L8 621L8 708L561 708L561 621L334 621Z" transform="translate(617.395 163) scale(0.04500 -0.04500)"/>
    </g>
    </g>
  </g>
</svg>
